<svg viewBox="0 0 26 26" fill="none" stroke="currentColor" stroke-width="2" stroke-linecap="round" stroke-linejoin="round" xmlns="http://www.w3.org/2000/svg">
<path d="M16.6111 18.7778C16.6111 18.9693 16.535 19.153 16.3996 19.2885C16.2641 19.4239 16.0804 19.5 15.8889 19.5H5.77778C5.61889 19.5 5.46722 19.6444 5.33722 19.7383L2.88889 21.6667V10.1111C2.88889 9.91957 2.96498 9.73587 3.10042 9.60042C3.23586 9.46498 3.41956 9.38889 3.61111 9.38889H6.39889V7.94444H3.61111C3.03647 7.94444 2.48537 8.17272 2.07904 8.57905C1.67272 8.98538 1.44444 9.53648 1.44444 10.1111V23.1111C1.44552 23.2452 1.48392 23.3764 1.55536 23.49C1.62679 23.6035 1.72843 23.6949 1.84889 23.7539C1.96493 23.8067 2.09288 23.8278 2.21973 23.8151C2.34658 23.8024 2.46781 23.7564 2.57111 23.6817L6.29055 20.9444H15.9972C16.2709 20.9525 16.5434 20.9043 16.7978 20.8029C17.0521 20.7014 17.2829 20.5487 17.4759 20.3544C17.6688 20.1601 17.8199 19.9282 17.9196 19.6732C18.0193 19.4181 18.0656 19.1453 18.0556 18.8717V17.5H16.6111V18.7778Z"/>
<path d="M22.3889 2.88889H10.1111C9.53647 2.88889 8.98537 3.11716 8.57904 3.52349C8.17272 3.92982 7.94444 4.48092 7.94444 5.05556V13.7222C7.94444 14.2969 8.17272 14.848 8.57904 15.2543C8.98537 15.6606 9.53647 15.8889 10.1111 15.8889H19.8972L23.3494 18.5683C23.4521 18.6442 23.573 18.6915 23.6998 18.7055C23.8267 18.7194 23.955 18.6995 24.0717 18.6478C24.1946 18.5892 24.2984 18.4972 24.3713 18.3822C24.4441 18.2672 24.4829 18.1339 24.4833 17.9978V5.05556C24.4836 4.49322 24.2653 3.95279 23.8745 3.54847C23.4836 3.14416 22.9509 2.90763 22.3889 2.88889ZM23.1111 16.5678L20.5833 14.5961C20.4573 14.4983 20.3023 14.4449 20.1428 14.4444H10.1111C9.91956 14.4444 9.73586 14.3684 9.60042 14.2329C9.46498 14.0975 9.38889 13.9138 9.38889 13.7222V5.05556C9.38889 4.86401 9.46498 4.68031 9.60042 4.54487C9.73586 4.40942 9.91956 4.33333 10.1111 4.33333H22.3889C22.5819 4.35086 22.7619 4.43836 22.895 4.57936C23.028 4.72037 23.1049 4.90514 23.1111 5.09889V16.5678Z"/>
</svg>