<svg viewBox="0 0 137 17" fill="none" xmlns="http://www.w3.org/2000/svg">
<path d="M13.8477 11.293C13.8411 11.9375 13.7467 12.5104 13.5645 13.0117C13.3887 13.5065 13.1413 13.9362 12.8223 14.3008C12.5033 14.6589 12.1289 14.9648 11.6992 15.2188C11.2695 15.4661 10.8073 15.668 10.3125 15.8242C9.81771 15.974 9.29688 16.0684 8.75 16.1074C8.20964 16.153 7.66602 16.1758 7.11914 16.1758C6.12956 16.1758 5.26042 16.1367 4.51172 16.0586C4.08203 16.0065 3.44076 15.8633 2.58789 15.6289C1.89128 15.4401 1.3444 15.2415 0.947266 15.0332V11.1758H3.88672C4.22526 11.6445 4.60612 11.9896 5.0293 12.2109C5.45898 12.4323 5.89844 12.543 6.34766 12.543C6.46484 12.543 6.59505 12.5332 6.73828 12.5137C6.88151 12.4941 7.01497 12.4388 7.13867 12.3477C7.26888 12.2565 7.3763 12.1133 7.46094 11.918C7.55208 11.7227 7.59766 11.4492 7.59766 11.0977C7.03776 11.0456 6.48112 10.9707 5.92773 10.873C5.38086 10.7754 4.85677 10.6419 4.35547 10.4727C3.85417 10.3034 3.38542 10.0918 2.94922 9.83789C2.51953 9.57747 2.14518 9.26497 1.82617 8.90039C1.51367 8.53581 1.26628 8.10938 1.08398 7.62109C0.908203 7.1263 0.820312 6.55664 0.820312 5.91211C0.820312 5.22201 0.911458 4.61654 1.09375 4.0957C1.27604 3.56836 1.52344 3.11589 1.83594 2.73828C2.15495 2.35417 2.52604 2.03841 2.94922 1.79102C3.37891 1.53711 3.83789 1.33529 4.32617 1.18555C4.82096 1.03581 5.33203 0.941406 5.85938 0.902344C6.39323 0.863281 6.92383 0.84375 7.45117 0.84375C8.2194 0.84375 8.90951 0.873047 9.52148 0.931641C10.14 0.983724 10.6966 1.06836 11.1914 1.18555C11.6862 1.30273 12.1224 1.4362 12.5 1.58594C12.8841 1.72917 13.2259 1.86914 13.5254 2.00586V5.81445H10.5859C10.2539 5.3457 9.88281 5.00065 9.47266 4.7793C9.06901 4.55794 8.65234 4.44727 8.22266 4.44727C8.10547 4.44727 7.97201 4.46354 7.82227 4.49609C7.67253 4.52214 7.53255 4.59049 7.40234 4.70117C7.27214 4.80534 7.16146 4.96159 7.07031 5.16992C6.97917 5.37174 6.93359 5.64844 6.93359 6C8.07292 6.03906 9.07552 6.16276 9.94141 6.37109C10.8073 6.57943 11.5267 6.89518 12.0996 7.31836C12.679 7.73503 13.1152 8.27214 13.4082 8.92969C13.7012 9.58073 13.8477 10.3685 13.8477 11.293ZM22.5977 9.27148V16H15.5566V12.1035L16.7285 11.8789V6.32227L15.5566 6.09766V2.25H22.5977L25.5566 7.50391L28.4863 2.25H35.5273V6.09766L34.3555 6.32227V11.8789L35.5273 12.1035V16H28.4863V9.27148L25.5566 14.2324L22.5977 9.27148ZM47.0312 16L46.543 13.6855H42.7051L42.2168 16H36.9922V11.4688L38.125 11.2441L40.8301 2.25H48.4082L51.1328 11.2441L52.2559 11.4688V16H47.0312ZM43.3008 10.5996H45.9473L44.6191 5.19922L43.3008 10.5996ZM60.7617 12.25C61.0352 12.25 61.2956 12.2142 61.543 12.1426C61.7904 12.0645 62.0182 11.9668 62.2266 11.8496C62.4414 11.7259 62.6335 11.5924 62.8027 11.4492C62.9785 11.2995 63.1315 11.1497 63.2617 11H64.8926V16H53.7207V12.1035L54.8926 11.8789V6.32227L53.7207 6.09766V2.25H61.9434V6.09766L60.7617 6.32227V12.25ZM73.2617 12.25C73.5352 12.25 73.7956 12.2142 74.043 12.1426C74.2904 12.0645 74.5182 11.9668 74.7266 11.8496C74.9414 11.7259 75.1335 11.5924 75.3027 11.4492C75.4785 11.2995 75.6315 11.1497 75.7617 11H77.3926V16H66.2207V12.1035L67.3926 11.8789V6.32227L66.2207 6.09766V2.25H74.4434V6.09766L73.2617 6.32227V12.25ZM91.0352 1V6H89.3945C89.2839 5.85677 89.1569 5.71029 89.0137 5.56055C88.8704 5.41081 88.7109 5.27734 88.5352 5.16016C88.3594 5.03646 88.1673 4.9388 87.959 4.86719C87.7507 4.78906 87.526 4.75 87.2852 4.75V11.5176L88.5352 11.7617V16H79.7852V11.7617L81.0352 11.5176V4.75C80.7943 4.75 80.5697 4.78906 80.3613 4.86719C80.153 4.9388 79.9609 5.03646 79.7852 5.16016C79.6094 5.27734 79.4499 5.41081 79.3066 5.56055C79.1634 5.71029 79.0365 5.85677 78.9258 6H77.2852V1H91.0352ZM100.977 16L100.488 13.6855H96.6504L96.1621 16H90.9375V11.4688L92.0703 11.2441L94.7754 2.25H102.354L105.078 11.2441L106.201 11.4688V16H100.977ZM97.2461 10.5996H99.8926L98.5645 5.19922L97.2461 10.5996ZM114.707 12.25C114.98 12.25 115.241 12.2142 115.488 12.1426C115.736 12.0645 115.964 11.9668 116.172 11.8496C116.387 11.7259 116.579 11.5924 116.748 11.4492C116.924 11.2995 117.077 11.1497 117.207 11H118.838V16H107.666V12.1035L108.838 11.8789V6.32227L107.666 6.09766V2.25H115.889V6.09766L114.707 6.32227V12.25ZM136.406 16H129.814L127.217 10.2383V16H120.166V12.1035L121.338 11.8789V6.32227L120.166 6.09766V2.25H127.217V7.73828L129.814 2.25H136.143V4.73047C135.758 5.05599 135.4 5.39779 135.068 5.75586C134.743 6.11393 134.437 6.47526 134.15 6.83984C133.864 7.20443 133.6 7.5625 133.359 7.91406C133.118 8.26562 132.9 8.60091 132.705 8.91992C132.959 9.32357 133.229 9.74674 133.516 10.1895C133.802 10.6257 134.098 11.0651 134.404 11.5078C134.717 11.9505 135.039 12.3867 135.371 12.8164C135.71 13.2396 136.055 13.6367 136.406 14.0078V16Z" fill="currentColor"/>
</svg>
